<?xml version="1.0" encoding="utf-8"?>
<!-- Generator: Adobe Illustrator 23.0.3, SVG Export Plug-In . SVG Version: 6.00 Build 0)  -->
<svg version="1.1" id="Layer_1" xmlns="http://www.w3.org/2000/svg" xmlns:xlink="http://www.w3.org/1999/xlink" x="0px" y="0px"
	 viewBox="0 0 40 60" style="enable-background:new 0 0 40 60;" xml:space="preserve">
<style type="text/css">
	.st0{fill:#328FFD;}
	.st1{fill:#FFFFFF;}
</style>
<g>
	<path class="st0" d="M37.1,14.3C34.9,6,26.6,0.1,18.2,1.1C9,2.2,2.2,9.6,2.2,18.6c0,3.2,0.9,6.3,2,9.3c3.4,9.4,8.1,18,13.1,26.5
		c0.8,1.5,1.7,2.8,2.7,4.5c1.7-2.8,3.3-5.4,4.7-8.1c4.4-7.9,8.7-15.8,11.5-24.4C37.5,22.4,38.2,18.5,37.1,14.3z"/>
</g>
<path class="st1" d="M30.5,15.3c-0.1-0.2-0.2-0.3-0.4-0.3h-7.1l-2.5-6.7C20.4,8.1,20.2,8,20,8c-0.2,0-0.4,0.1-0.4,0.3L17.1,15H9.9
	c-0.2,0-0.4,0.1-0.4,0.3c-0.1,0.2,0,0.4,0.1,0.5l5.9,5.1L13,28.4c-0.1,0.2,0,0.4,0.2,0.5c0.2,0.1,0.4,0.1,0.5,0l6.3-4.6l6.3,4.6
	c0.1,0.1,0.2,0.1,0.3,0.1s0.2,0,0.3-0.1c0.2-0.1,0.2-0.3,0.2-0.5l-2.5-7.6l5.9-5.1C30.5,15.7,30.5,15.5,30.5,15.3z"/>
<path d="M1057,1353.3c-0.1-0.2-0.3-0.3-0.5-0.3h-8.1l-2.9-7.7c-0.1-0.2-0.3-0.3-0.5-0.3c-0.2,0-0.4,0.1-0.5,0.3l-2.9,7.7h-8.1
	c-0.2,0-0.4,0.1-0.5,0.3c-0.1,0.2,0,0.4,0.2,0.6l6.7,5.8l-2.9,8.7c-0.1,0.2,0,0.4,0.2,0.6s0.4,0.1,0.6,0l7.2-5.3l7.2,5.3
	c0.1,0.1,0.2,0.1,0.3,0.1s0.2,0,0.3-0.1c0.2-0.1,0.2-0.4,0.2-0.6l-2.9-8.7l6.7-5.8C1057,1353.8,1057,1353.5,1057,1353.3z"/>
</svg>
