<?xml version="1.0" encoding="utf-8"?>
<!-- Generator: Adobe Illustrator 23.0.3, SVG Export Plug-In . SVG Version: 6.00 Build 0)  -->
<svg version="1.1" id="Layer_1" xmlns="http://www.w3.org/2000/svg" xmlns:xlink="http://www.w3.org/1999/xlink" x="0px" y="0px"
	 viewBox="0 0 40 60" style="enable-background:new 0 0 40 60;" xml:space="preserve">
<style type="text/css">
	.st0{fill:#FFFFFF;}
</style>
<g>
	<g>
		<path d="M37.1,14.3C34.9,6,26.6,0.1,18.2,1.1C9,2.2,2.2,9.6,2.2,18.6c0,3.2,0.9,6.3,2,9.3c3.4,9.4,8.1,18,13.1,26.5
			c0.8,1.5,1.7,2.8,2.7,4.5c1.7-2.8,3.3-5.4,4.7-8.1c4.4-7.9,8.7-15.8,11.5-24.4C37.5,22.4,38.2,18.5,37.1,14.3z"/>
	</g>
	<g>
		<path class="st0" d="M28.6,24.3h-1.9v-6.4c0-0.2-0.2-0.4-0.4-0.4H13.6c-0.2,0-0.4,0.2-0.4,0.4v6.4h-1.9c-0.2,0-0.4,0.2-0.4,0.4
			c0,0.2,0.2,0.4,0.4,0.4h17.3c0.2,0,0.4-0.2,0.4-0.4C29,24.4,28.8,24.3,28.6,24.3z M15.5,18.6c0-0.2,0.2-0.4,0.4-0.4h2.3
			c0.2,0,0.4,0.2,0.4,0.4v3.8c0,0.2-0.2,0.4-0.4,0.4h-2.3c-0.2,0-0.4-0.2-0.4-0.4V18.6z M19.2,23.9c0,0.2-0.2,0.4-0.4,0.4h-3.8
			c-0.2,0-0.4-0.2-0.4-0.4v0c0-0.2,0.2-0.4,0.4-0.4h3.8C19.1,23.5,19.2,23.7,19.2,23.9L19.2,23.9z M24.5,21.6c0,0.2-0.2,0.4-0.4,0.4
			h-3.8c-0.2,0-0.4-0.2-0.4-0.4v-2.3c0-0.2,0.2-0.4,0.4-0.4h3.8c0.2,0,0.4,0.2,0.4,0.4V21.6z"/>
		<path class="st0" d="M11.4,16.7h17.3c0.2,0,0.3-0.1,0.4-0.3c0.1-0.2,0-0.3-0.1-0.4l-2.1-1.6v-3.4c0-0.2-0.2-0.4-0.4-0.4h-2.3
			c-0.2,0-0.4,0.2-0.4,0.4v1.2l-3.5-2.6c-0.1-0.1-0.3-0.1-0.4,0l-8.6,6.4C11,16.2,11,16.3,11,16.5C11.1,16.7,11.2,16.8,11.4,16.7z"
			/>
	</g>
</g>
</svg>
