<?xml version="1.0" encoding="utf-8"?>
<!-- Generator: Adobe Illustrator 23.0.3, SVG Export Plug-In . SVG Version: 6.00 Build 0)  -->
<svg version="1.1" id="Layer_1" xmlns="http://www.w3.org/2000/svg" xmlns:xlink="http://www.w3.org/1999/xlink" x="0px" y="0px"
	 viewBox="0 0 40 70" style="enable-background:new 0 0 40 70;" width="40px" height="70px" xml:space="preserve">
<style type="text/css">
	.st0{opacity:0.3;fill:url(#SVGID_1_);}
	.st1{opacity:0.3;fill:url(#SVGID_2_);}
	.st2{fill:#328FFD;}
	.st3{fill:#FFFFFF;}
</style>
<g>
	<g>
		<g>
			
				<radialGradient id="SVGID_1_" cx="20" cy="64.1301" r="18.0413" gradientTransform="matrix(1 0 0 0.2627 0 47.2832)" gradientUnits="userSpaceOnUse">
				<stop  offset="0" style="stop-color:#000000"/>
				<stop  offset="1" style="stop-color:#000000;stop-opacity:0"/>
			</radialGradient>
			<ellipse class="st0" cx="20" cy="64.1" rx="24.8" ry="5.9"/>
			
				<radialGradient id="SVGID_2_" cx="26.5397" cy="127.7288" r="18.0413" gradientTransform="matrix(0.35 0 0 9.169042e-02 10.5099 52.4186)" gradientUnits="userSpaceOnUse">
				<stop  offset="0" style="stop-color:#000000"/>
				<stop  offset="1" style="stop-color:#000000;stop-opacity:0"/>
			</radialGradient>
			<ellipse class="st1" cx="19.8" cy="64.1" rx="8.7" ry="2"/>
		</g>
	</g>
	<g>
		<g>
			<path class="st2" d="M37.2,19.5C35,11.2,26.7,5.3,18.3,6.3c-9.2,1.1-16,8.5-16,17.5c0,3.2,0.9,6.3,2,9.3
				c3.4,9.4,8.1,18,13.1,26.5c0.8,1.5,1.7,2.8,2.7,4.5c1.7-2.8,3.3-5.4,4.7-8.1c4.4-7.9,8.7-15.8,11.5-24.4
				C37.6,27.6,38.3,23.7,37.2,19.5z"/>
		</g>
		<path class="st3" d="M30.6,20.5c-0.1-0.2-0.2-0.3-0.4-0.3h-7.1l-2.5-6.7c-0.1-0.2-0.3-0.3-0.5-0.3s-0.4,0.1-0.4,0.3l-2.5,6.7H10
			c-0.2,0-0.4,0.1-0.4,0.3c-0.1,0.2,0,0.4,0.1,0.5l5.9,5.1l-2.5,7.5c-0.1,0.2,0,0.4,0.2,0.5c0.2,0.1,0.4,0.1,0.5,0l6.3-4.6l6.3,4.6
			c0.1,0.1,0.2,0.1,0.3,0.1s0.2,0,0.3-0.1c0.2-0.1,0.2-0.3,0.2-0.5L24.7,26l5.9-5.1C30.6,20.9,30.6,20.7,30.6,20.5z"/>
	</g>
</g>
</svg>
