<?xml version="1.0" encoding="utf-8"?>
<!-- Generator: Adobe Illustrator 23.0.3, SVG Export Plug-In . SVG Version: 6.00 Build 0)  -->
<svg version="1.1" id="Layer_1" xmlns="http://www.w3.org/2000/svg" xmlns:xlink="http://www.w3.org/1999/xlink" x="0px" y="0px"
	 viewBox="0 0 40 90.4" style="enable-background:new 0 0 40 90.4;" xml:space="preserve"  width="40px" height="90px">
<style type="text/css">
	.st0{fill:#FFFFFF;}
	.st1{opacity:0.3;fill:url(#SVGID_1_);}
	.st2{opacity:0.3;fill:url(#SVGID_2_);}
</style>
<g>
	<circle class="st0" cx="20" cy="18.8" r="12.5"/>
	<g id="Group_97" transform="translate(-932 -380)">
		<circle id="Ellipse_2" class="st0" cx="951.8" cy="398.7" r="11.6"/>
		<g id="Group_96" transform="translate(932 380)">
			<path id="Path_3" d="M20,58.9c-1-1.7-1.9-3-2.7-4.5c-5-8.5-9.7-17.1-13.1-26.5c-1.1-3-2-6.1-2-9.3c0-9,6.8-16.4,16-17.5
				c8.4-1,16.7,4.9,18.9,13.2c1.1,4.2,0.4,8.1-0.9,12.1c-2.8,8.6-7.1,16.5-11.5,24.4C23.3,53.5,21.7,56.1,20,58.9z M19.8,8.4
				C14.1,8.4,9.5,13,9.5,18.7S14.1,29,19.8,29c5.7,0.1,10.3-4.5,10.4-10.2S25.7,8.4,20.1,8.4C20,8.4,19.9,8.4,19.8,8.4L19.8,8.4z"/>
		</g>
	</g>
</g>
<radialGradient id="SVGID_1_" cx="20" cy="58.9" r="18.0413" gradientTransform="matrix(1 0 0 0.2627 0 43.427)" gradientUnits="userSpaceOnUse">
	<stop  offset="0" style="stop-color:#000000"/>
	<stop  offset="1" style="stop-color:#000000;stop-opacity:0"/>
</radialGradient>
<ellipse class="st1" cx="20" cy="58.9" rx="24.8" ry="5.9"/>
<radialGradient id="SVGID_2_" cx="26.5397" cy="94.0937" r="18.0413" gradientTransform="matrix(0.35 0 0 9.169042e-02 10.5099 50.2725)" gradientUnits="userSpaceOnUse">
	<stop  offset="0" style="stop-color:#000000"/>
	<stop  offset="1" style="stop-color:#000000;stop-opacity:0"/>
</radialGradient>
<ellipse class="st2" cx="19.8" cy="58.9" rx="8.7" ry="2"/>
</svg>
