<?xml version="1.0" encoding="utf-8"?>
<!-- Generator: Adobe Illustrator 21.0.2, SVG Export Plug-In . SVG Version: 6.00 Build 0)  -->
<svg version="1.1" id="Layer_1" xmlns="http://www.w3.org/2000/svg" xmlns:xlink="http://www.w3.org/1999/xlink" width="40px" height="62px" x="0px" y="0px"
	 viewBox="0 0 113.4 175.8" style="enable-background:new 0 0 113.4 175.8;" xml:space="preserve">
<style type="text/css">
	.st0{fill:#DF081B;}
	.st1{fill:#FFFFFF;}
</style>
<g>
	<path class="st0" d="M91.7,20.6C78.6,7,62.2,3.2,44.1,7.4c-24.2,5.7-44,32.6-33.9,61.8c6.2,17.8,13.6,35.3,21.4,52.5
		c7.4,16.4,16,32.2,24.1,48.3c0.5,0,1.1,0,1.6,0c8.1-16.1,16.8-31.9,24.2-48.2c7.9-17.3,15.2-35,21.5-52.9
		C109.4,50.8,104.8,34.3,91.7,20.6z"/>
	<g>
		<path class="st1" d="M56.7,72.1c7.6,0,13.8-4.9,14.3-12.3H42.4C42.9,67.2,49.1,72.1,56.7,72.1z"/>
		<circle class="st1" cx="47.5" cy="46.5" r="2"/>
		<circle class="st1" cx="65.9" cy="46.5" r="2"/>
		<path class="st1" d="M56.7,31.2c-13.5,0-24.5,11-24.5,24.5s11,24.5,24.5,24.5s24.5-11,24.5-24.5S70.2,31.2,56.7,31.2z M65.9,42.4
			c2.3,0,4.1,1.8,4.1,4.1c0,2.3-1.8,4.1-4.1,4.1s-4.1-1.8-4.1-4.1C61.8,44.3,63.6,42.4,65.9,42.4z M47.5,42.4c2.3,0,4.1,1.8,4.1,4.1
			c0,2.3-1.8,4.1-4.1,4.1s-4.1-1.8-4.1-4.1C43.4,44.3,45.2,42.4,47.5,42.4z M56.7,74.1c-9,0-16.4-6.3-16.4-15.4c0-0.6,0.5-1,1-1H72
			c0.6,0,1,0.5,1,1C73.1,67.8,65.7,74.1,56.7,74.1z"/>
	</g>
</g>
</svg>
