<?xml version="1.0" encoding="utf-8"?>
<!-- Generator: Adobe Illustrator 21.0.2, SVG Export Plug-In . SVG Version: 6.00 Build 0)  -->
<svg version="1.1" id="Layer_1" xmlns="http://www.w3.org/2000/svg" xmlns:xlink="http://www.w3.org/1999/xlink" width="40px" height="62px" x="0px" y="0px"
	 viewBox="0 0 40 62" style="enable-background:new 0 0 40 62;" xml:space="preserve">
<style type="text/css">
	.st0{fill:#353D42;}
	.st1{fill:#FFFFFF;}
</style>
<g>
	<path class="st0" d="M32.3,7.3c-4.6-4.8-10.4-6.1-16.8-4.7C7,4.6,0,14.1,3.6,24.4c2.2,6.3,4.8,12.4,7.5,18.5
		c2.6,5.8,5.6,11.4,8.5,17c0.2,0,0.4,0,0.6,0c2.9-5.7,5.9-11.3,8.5-17c2.8-6.1,5.4-12.3,7.6-18.7C38.6,17.9,37,12.1,32.3,7.3z"/>
	<g>
		<path class="st1" d="M18.9,24.2c0-0.3,0-0.5,0-0.6c0-0.8,0.1-1.5,0.3-2.1c0.2-0.4,0.4-0.9,0.8-1.3c0.3-0.3,0.8-0.8,1.5-1.4
			s1.2-1.1,1.4-1.5c0.2-0.4,0.3-0.8,0.3-1.2c0-0.8-0.3-1.5-0.9-2.1s-1.4-0.9-2.3-0.9s-1.6,0.3-2.2,0.8s-1,1.4-1.1,2.5l-2.1-0.2
			c0.2-1.5,0.7-2.7,1.7-3.5s2.1-1.2,3.7-1.2s2.9,0.4,3.9,1.3s1.4,1.9,1.4,3.2c0,0.7-0.2,1.4-0.5,2s-1,1.3-2,2.2
			c-0.7,0.6-1.1,1-1.3,1.3s-0.4,0.6-0.4,1s-0.2,0.9-0.2,1.8h-2V24.2z M18.8,28.3V26h2.3v2.3H18.8z"/>
	</g>
</g>
</svg>
