<?xml version="1.0" encoding="utf-8"?>
<!-- Generator: Adobe Illustrator 21.0.2, SVG Export Plug-In . SVG Version: 6.00 Build 0)  -->
<svg version="1.1" id="Layer_1" xmlns="http://www.w3.org/2000/svg" xmlns:xlink="http://www.w3.org/1999/xlink" width="40px" height="62px" x="0px" y="0px"
	 viewBox="0 0 113.4 175.8" style="enable-background:new 0 0 113.4 175.8;" xml:space="preserve">
<style type="text/css">
	.st0{fill:#353d42;}
	.st1{fill:#FFFFFF;}
</style>
<g>
	<path class="st0" d="M91.7,20.6C78.6,7,62.2,3.2,44.1,7.4c-24.2,5.7-44,32.6-33.9,61.8c6.2,17.8,13.6,35.3,21.4,52.5
		c7.4,16.4,16,32.2,24.1,48.3c0.5,0,1.1,0,1.6,0c8.1-16.1,16.8-31.9,24.2-48.2c7.9-17.3,15.2-35,21.5-52.9
		C109.4,50.8,104.8,34.3,91.7,20.6z"/>
	<g>
		<path class="st1" d="M69.3,61.4c-1.3-1.6-2.9-3-4.7-4.1C60.3,66,50.9,71.2,41.1,69.8c1.6,1.6,3.5,2.9,5.6,3.9
			C61.8,75.7,69.3,61.4,69.3,61.4z"/>
		<path class="st1" d="M43.6,59.8c1.9-0.3,3.8-0.9,5.6-1.8c-2.5-3.7-3.8-8-3.8-12.6c0-3.3,0.7-6.4,2-9.4c0.1-0.1,0.9-2.1,2.6-4.3
			c-1.8,0.6-3.5,1.4-5.1,2.3c-2.2,2.4-3.3,5-3.4,5c-1.2,2.7-1.9,5.6-1.9,8.6C39.7,52.1,41.1,56.3,43.6,59.8z"/>
		<path class="st1" d="M57.5,38.8c-0.7,1.8-1.1,3.8-1.2,5.8c9.5-0.8,18.7,4.5,22.5,13.5c0.3-1.5,0.5-3.1,0.5-4.7
			c0-0.7,0-1.4-0.1-2.1C75.6,43.1,66.7,37.8,57.5,38.8z"/>
		<path class="st1" d="M56.3,46.5c0.1,2.1,0.4,4.1,1.1,6.1c7.6,1.3,14,6.2,17.3,14.5c1.3-1.8,2.4-3.7,3.2-5.9
			C75.4,52.1,66.4,45.6,56.3,46.5z"/>
		<path class="st1" d="M49.1,36.9c-1.2,2.7-1.9,5.6-1.9,8.6c0,4.2,1.3,8.2,3.6,11.7c1.8-1.1,3.4-2.4,4.8-4c-0.8-2.4-1.3-4.8-1.3-7.3
			c0-5.2,1.7-10.2,5.5-14.8c-1.1-0.2-2.1-0.3-3.2-0.3c-1.2,0-2.3,0.1-3.5,0.3C50.5,33.7,49.2,36.8,49.1,36.9z"/>
		<path class="st1" d="M70.3,62.7c-3.8,7.9-11.7,12.2-18.1,12.9c1.5,0.3,3,0.5,4.5,0.5c6.6,0,12.5-2.8,16.6-7.3
			C72.5,66.3,71.5,64.4,70.3,62.7z"/>
		<path class="st1" d="M41.5,60c-2.4-3.7-3.6-7.9-3.6-12.3c0-3.3,0.7-6.4,2-9.4c0,0,0,0,0-0.1c-3.6,4-5.8,9.3-5.8,15.1
			c0,2.1,0.3,4.1,0.8,6C37.3,60,39.4,60.2,41.5,60z"/>
		<path class="st1" d="M58.4,36.9c8.3-0.6,15.7,3.8,19.5,8.7c-2.6-7-8.5-12.3-15.8-14.1C60.4,33.2,59.3,35,58.4,36.9z"/>
		<path class="st1" d="M35.6,61.5c0.8,2.1,1.9,4.1,3.3,5.8c9.3,2.7,19.6-1.9,24-11c-1.8-0.9-3.8-1.6-5.9-2
			C51.9,60.1,44.5,63.1,35.6,61.5z"/>
		<polygon class="st1" points="56.7,53.4 56.7,53.4 56.7,53.4 		"/>
	</g>
</g>
</svg>
