<?xml version="1.0" encoding="utf-8"?>
<!-- Generator: Adobe Illustrator 21.0.2, SVG Export Plug-In . SVG Version: 6.00 Build 0)  -->
<svg version="1.1" id="Layer_1" xmlns="http://www.w3.org/2000/svg" xmlns:xlink="http://www.w3.org/1999/xlink" width="40px" height="62px" x="0px" y="0px"
	 viewBox="0 0 113.4 175.8" style="enable-background:new 0 0 113.4 175.8;" xml:space="preserve">
<style type="text/css">
	.st0{fill:#14587E;}
	.st1{fill-rule:evenodd;clip-rule:evenodd;fill:#FFFFFF;}
</style>
<g>
	<path class="st0" d="M91.7,20.6C78.6,7,62.2,3.2,44.1,7.4c-24.2,5.7-44,32.6-33.9,61.8c6.2,17.8,13.6,35.3,21.4,52.5
		c7.4,16.4,16,32.2,24.1,48.3c0.5,0,1.1,0,1.6,0c8.1-16.1,16.8-31.9,24.2-48.2c7.9-17.3,15.2-35,21.5-52.9
		C109.4,50.8,104.8,34.3,91.7,20.6z"/>
	<path class="st1" d="M29.5,49.3c7.8-3.2,15.7-6.4,23.5-9.5c4.4-1.8,3.8-1.8,8.2,0c7.6,3.1,15.3,6.2,22.9,9.3c3.3,1.3,2.3,2.1,0.1,3
		l-22.8,9.2c-4.8,1.9-4,1.9-8.8,0l-3.6-1.5c-0.7-0.1-0.6,0.8,0.4,1.3c0.9,0.4,2.2,0.9,3.4,1.4c4.2,1.9,4.9,1.7,8,0.1
		c4.4-1.8,8.9-3.6,13.3-5.4c0,2.8,0,3.3,0,6.1c-10.6,9.6-25.2,8.8-35.3,0l0-7.7l-6.1-2.5v9.5c4.8,7.1-1.3,14-5.7,13.5
		c4.6-3.2-1.6-10.8,3.9-13.4l0-10.3l-1.4-0.5C27.1,50.9,27.6,49.9,29.5,49.3z"/>
</g>
</svg>
