<?xml version="1.0" encoding="utf-8"?>
<!-- Generator: Adobe Illustrator 21.0.2, SVG Export Plug-In . SVG Version: 6.00 Build 0)  -->
<svg version="1.1" id="Layer_1" xmlns="http://www.w3.org/2000/svg" xmlns:xlink="http://www.w3.org/1999/xlink" width="40px" height="62px" x="0px" y="0px"
	 viewBox="0 0 113.4 175.8" style="enable-background:new 0 0 113.4 175.8;" xml:space="preserve">
<style type="text/css">
	.st0{fill:#353d42;}
	.st1{fill:#FFFFFF;}
</style>
<g>
	<path class="st0" d="M91.7,20.6C78.6,7,62.2,3.2,44.1,7.4c-24.2,5.7-44,32.6-33.9,61.8c6.2,17.8,13.6,35.3,21.4,52.5
		c7.4,16.4,16,32.2,24.1,48.3c0.5,0,1.1,0,1.6,0c8.1-16.1,16.8-31.9,24.2-48.2c7.9-17.3,15.2-35,21.5-52.9
		C109.4,50.8,104.8,34.3,91.7,20.6z"/>
	<g>
		<path class="st1" d="M46.3,61.6c-0.2-0.3-0.3-0.5-0.3-0.5c-3,4-7.6,11-7.7,13.6c-0.1,1.2,3,11.2,2.4,11.4c3.4,0,2.5-6.6,2.9-9.3
			c0.2-1.7,0.1-1.9,1.3-3.4c0.5-0.7,5-4.3,4.4-5.2C49.4,68.2,46.5,65.3,46.3,61.6z"/>
		<path class="st1" d="M85.4,50.1c0.6-0.2,0.3-0.3,0.4-0.5c-16.5-0.7-19.2,0.7-25.6-2.4c-3.4-1.6,5.3-11.1,8.3-14.9
			c4.9-6.2-2.7-0.3-5,2.1C56.4,41.6,48,51,47.3,59.9c-0.5,6.7,7.5,12.3,13.2,17.5c3.6,3.3,7.3,6,12,8.7c-2.2-3.5-9.5-12.6-14.1-17.8
			c-4.3-4.8-4.5-11.2,2.4-14.9C67.3,50,78.4,51.9,85.4,50.1z"/>
		<path class="st1" d="M68.5,41.8c1.6,0.7,1.6,2.5,0.2,4c-1.5,1.5-3.9,2-5.5,1.3c-1.6-0.7-1.6-2.5-0.2-4C64.5,41.6,67,41,68.5,41.8z
			"/>
	</g>
</g>
</svg>
