<?xml version="1.0" encoding="utf-8"?>
<!-- Generator: Adobe Illustrator 21.0.2, SVG Export Plug-In . SVG Version: 6.00 Build 0)  -->
<svg version="1.1" id="Layer_1" xmlns="http://www.w3.org/2000/svg" xmlns:xlink="http://www.w3.org/1999/xlink" width="40px" height="62px" x="0px" y="0px"
	 viewBox="0 0 113.4 175.8" style="enable-background:new 0 0 113.4 175.8;" xml:space="preserve">
<style type="text/css">
	.st0{fill:#353d42;}
	.st1{fill:#FFFFFF;}
</style>
<g>
	<path class="st0" d="M91.7,20.6C78.6,7,62.2,3.2,44.1,7.4c-24.2,5.7-44,32.6-33.9,61.8c6.2,17.8,13.6,35.3,21.4,52.5
		c7.4,16.4,16,32.2,24.1,48.3c0.5,0,1.1,0,1.6,0c8.1-16.1,16.8-31.9,24.2-48.2c7.9-17.3,15.2-35,21.5-52.9
		C109.4,50.8,104.8,34.3,91.7,20.6z"/>
	<g>
		<path class="st1" d="M32.1,58.4c0,2.2,0.7,3.5,2,4v9.3h8.2v-9.3c1.4-0.4,2-1.7,2-4v-7.2H32.1V58.4z"/>
		<path class="st1" d="M69,51.2v7.2c0,2.2,0.7,3.5,2,4v9.3h8.2v-9.3c1.4-0.4,2-1.7,2-4v-7.2H69z"/>
		<path class="st1" d="M48.5,62.5c0,2.5,1.8,4.5,4.1,5v12.4h8.2V67.5c2.3-0.5,4.1-2.5,4.1-5V51.2H48.5V62.5z"/>
		<circle class="st1" cx="75.1" cy="45.1" r="4.1"/>
		<circle class="st1" cx="38.3" cy="45.1" r="4.1"/>
		<circle class="st1" cx="56.7" cy="43" r="6.1"/>
	</g>
</g>
</svg>
