<?xml version="1.0" encoding="utf-8"?>
<!-- Generator: Adobe Illustrator 21.0.2, SVG Export Plug-In . SVG Version: 6.00 Build 0)  -->
<svg version="1.1" id="Layer_1" xmlns="http://www.w3.org/2000/svg" xmlns:xlink="http://www.w3.org/1999/xlink" width="40px" height="62px" x="0px" y="0px"
	 viewBox="0 0 113.4 175.8" style="enable-background:new 0 0 113.4 175.8;" xml:space="preserve">
<style type="text/css">
	.st0{fill:#353d42;}
	.st1{fill:#FFFFFF;}
</style>
<g>
	<path class="st0" d="M91.7,20.6C78.6,7,62.2,3.2,44.1,7.4c-24.2,5.7-44,32.6-33.9,61.8c6.2,17.8,13.6,35.3,21.4,52.5
		c7.4,16.4,16,32.2,24.1,48.3c0.5,0,1.1,0,1.6,0c8.1-16.1,16.8-31.9,24.2-48.2c7.9-17.3,15.2-35,21.5-52.9
		C109.4,50.8,104.8,34.3,91.7,20.6z"/>
	<path class="st1" d="M49.9,42.4h-9.3c-0.6-2.9-3.1-5-6.2-5c-3.5,0-6.3,2.8-6.3,6.3c0,3.5,2.8,6.3,6.3,6.3c3,0,5.6-2.1,6.2-5h9.3v37
		h2.6V45v-2.6H49.9z"/>
	<path class="st1" d="M75.9,43c-3,0-5.6,2.1-6.2,5h-9.3V36.8h-2.6V48v2.5v0.1h11.9c0.6,2.9,3.1,5,6.2,5c3.5,0,6.3-2.8,6.3-6.3
		C82.2,45.8,79.4,43,75.9,43z"/>
	<path class="st1" d="M75.9,63.8c-3.1,0-5.6,2.2-6.2,5.1h-9.3h-2.5h-0.1V82h2.6V71.5h9.4c0.6,2.8,3.1,4.9,6.1,4.9
		c3.5,0,6.3-2.8,6.3-6.3C82.2,66.6,79.4,63.8,75.9,63.8z"/>
</g>
</svg>
