<?xml version="1.0" encoding="utf-8"?>
<!-- Generator: Adobe Illustrator 21.0.2, SVG Export Plug-In . SVG Version: 6.00 Build 0)  -->
<svg version="1.1" id="Layer_1" xmlns="http://www.w3.org/2000/svg" xmlns:xlink="http://www.w3.org/1999/xlink" width="40px" height="62px" x="0px" y="0px"
	 viewBox="0 0 113.4 175.8" style="enable-background:new 0 0 113.4 175.8;" xml:space="preserve">
<style type="text/css">
	.st0{fill:#353d42;}
	.st1{fill:#FFFFFF;}
</style>
<g>
	<path class="st0" d="M91.7,20.6C78.6,7,62.2,3.2,44.1,7.4c-24.2,5.7-44,32.6-33.9,61.8c6.2,17.8,13.6,35.3,21.4,52.5
		c7.4,16.4,16,32.2,24.1,48.3c0.5,0,1.1,0,1.6,0c8.1-16.1,16.8-31.9,24.2-48.2c7.9-17.3,15.2-35,21.5-52.9
		C109.4,50.8,104.8,34.3,91.7,20.6z"/>
	<path class="st1" d="M78.2,39.2c-6.6-8.7-18.7-12.5-29.3-9.1C37.6,33.9,31.1,43,31.1,54.7c0.1,12.9,9.7,24,21.9,25.1
		c6.7,0.6,11.3-2.4,6.9-7.6c-3.2-3.8-1-7.4,3.3-6.5c0.9,0.2,2.4,0.7,3.3,0.7C84,65.4,85.3,48.6,78.2,39.2z M44,52.5
		c-1.4,1.6-3.8,1.9-5.4,0.5c-1.6-1.4-1.9-3.8-0.5-5.4c1.4-1.6,3.8-1.9,5.4-0.5C45.2,48.4,45.4,50.9,44,52.5z M53.2,41.3
		c-1.4,1.6-3.8,1.9-5.4,0.5c-1.6-1.4-1.9-3.8-0.5-5.4c1.4-1.6,3.8-1.9,5.4-0.5C54.3,37.2,54.6,39.6,53.2,41.3z M67.2,42.6
		c-1.4,1.6-3.8,1.9-5.4,0.5c-1.6-1.4-1.9-3.8-0.5-5.4c1.4-1.6,3.8-1.9,5.4-0.5C68.3,38.5,68.5,41,67.2,42.6z M75.9,53
		c-1.4,1.6-3.8,1.9-5.4,0.5c-1.6-1.4-1.9-3.8-0.5-5.4c1.4-1.6,3.8-1.9,5.4-0.5C77,48.9,77.2,51.3,75.9,53z"/>
</g>
</svg>
