<?xml version="1.0" encoding="utf-8"?>
<!-- Generator: Adobe Illustrator 21.0.2, SVG Export Plug-In . SVG Version: 6.00 Build 0)  -->
<svg version="1.1" id="Layer_1" xmlns="http://www.w3.org/2000/svg" xmlns:xlink="http://www.w3.org/1999/xlink" width="40px" height="62px" x="0px" y="0px"
	 viewBox="0 0 113.4 175.8" style="enable-background:new 0 0 113.4 175.8;" xml:space="preserve">
<style type="text/css">
	.st0{fill:#353d42;}
	.st1{fill:#FFFFFF;}
</style>
<g>
	<path class="st0" d="M91.7,20.6C78.6,7,62.2,3.2,44.1,7.4c-24.2,5.7-44,32.6-33.9,61.8c6.2,17.8,13.6,35.3,21.4,52.5
		c7.4,16.4,16,32.2,24.1,48.3c0.5,0,1.1,0,1.6,0c8.1-16.1,16.8-31.9,24.2-48.2c7.9-17.3,15.2-35,21.5-52.9
		C109.4,50.8,104.8,34.3,91.7,20.6z"/>
	<path class="st1" d="M48.3,43.7v23.4h-4.9c-3.8,0-6.9,3.1-6.9,6.9s3.1,6.9,6.9,6.9c3.7,0,6.9-3.2,6.9-6.9v-22L70,43.8v15.3h-4.9
		c-3.8,0-6.9,3.1-6.9,6.9c0,3.8,3.1,6.9,6.9,6.9c3.7,0,6.9-3.2,6.9-6.9V34L48.3,43.7z"/>
</g>
</svg>
