<?xml version="1.0" encoding="utf-8"?>
<!-- Generator: Adobe Illustrator 21.0.2, SVG Export Plug-In . SVG Version: 6.00 Build 0)  -->
<svg version="1.1" id="Layer_1" xmlns="http://www.w3.org/2000/svg" xmlns:xlink="http://www.w3.org/1999/xlink" width="40px" height="62px" x="0px" y="0px"
	 viewBox="0 0 113.4 175.8" style="enable-background:new 0 0 113.4 175.8;" xml:space="preserve">
<style type="text/css">
	.st0{fill:#353d42;}
	.st1{fill:#FFFFFF;}
</style>
<g>
	<path class="st0" d="M91.7,20.6C78.6,7,62.2,3.2,44.1,7.4c-24.2,5.7-44,32.6-33.9,61.8c6.2,17.8,13.6,35.3,21.4,52.5
		c7.4,16.4,16,32.2,24.1,48.3c0.5,0,1.1,0,1.6,0c8.1-16.1,16.8-31.9,24.2-48.2c7.9-17.3,15.2-35,21.5-52.9
		C109.4,50.8,104.8,34.3,91.7,20.6z"/>
	<g>
		<path class="st1" d="M57.5,91.8V79.2c-1.1-1.5-1.8-3.5-1.8-5.6V58.8c0-1.6,1.1-2.9,2.6-2.9c0.4,0,0.7,0.1,1,0.2v-0.4
			c0-1.6,1.1-2.9,2.6-2.9c0.4,0,0.8,0.1,1.2,0.3c0.1-0.3,0.3-0.6,0.5-0.8V38.8c0-1.4-0.8-2.5-1.8-2.5c-1,0-1.8,1.1-1.8,2.5V50
			c0,0.7-0.4,1.2-0.9,1.2c-0.5,0-0.9-0.6-0.9-1.2V33.9c0-1.4-0.8-2.5-1.8-2.5c-1,0-1.8,1.1-1.8,2.5v13.7c0,0.7-0.4,1.2-0.9,1.2
			c-0.5,0-0.9-0.6-0.9-1.2V31.4c0-1.4-0.8-2.5-1.8-2.5s-1.8,1.1-1.8,2.5v16.2c0,0.7-0.4,1.2-0.9,1.2c-0.5,0-0.9-0.6-0.9-1.2V33.9
			c0-1.4-0.8-2.5-1.8-2.5c-1,0-1.8,1.1-1.8,2.5v23.6c0,0.7-0.4,1.2-0.9,1.2c-0.5,0-0.9-0.6-0.9-1.2v-10h-1.8c-1,0-1.8,1.1-1.8,2.5
			v10c0,3.7,3.4,10.6,7.9,12.9v18.9H57.5z"/>
		<path class="st1" d="M68.4,91.8V80c3-1.4,5.3-5.7,5.3-8v-6.2c0-0.9-0.5-1.6-1.2-1.6h-1.2v6.2c0,0.4-0.3,0.8-0.6,0.8
			c-0.3,0-0.6-0.3-0.6-0.8V55.7c0-0.9-0.5-1.6-1.2-1.6c-0.7,0-1.2,0.7-1.2,1.6v8.5c0,0.4-0.3,0.8-0.6,0.8c-0.3,0-0.6-0.3-0.6-0.8
			V54.1c0-0.9-0.5-1.6-1.2-1.6s-1.2,0.7-1.2,1.6v10.1c0,0.4-0.3,0.8-0.6,0.8c-0.3,0-0.6-0.3-0.6-0.8v-8.5c0-0.9-0.5-1.6-1.2-1.6
			s-1.2,0.7-1.2,1.6v10.1c0,0.4-0.3,0.8-0.6,0.8c-0.3,0-0.6-0.3-0.6-0.8v-7c0-0.9-0.5-1.6-1.2-1.6c-0.7,0-1.2,0.7-1.2,1.6v14.7
			c0,2,0.7,3.9,1.8,5.2v13.1H68.4z"/>
	</g>
</g>
</svg>
