<?xml version="1.0" encoding="utf-8"?>
<!-- Generator: Adobe Illustrator 23.0.3, SVG Export Plug-In . SVG Version: 6.00 Build 0)  -->
<svg version="1.1" id="Layer_1" xmlns="http://www.w3.org/2000/svg" xmlns:xlink="http://www.w3.org/1999/xlink"  width="40px" height="62px" x="0px" y="0px"
	 viewBox="0 0 40 62" style="enable-background:new 0 0 40 62;" xml:space="preserve">
<style type="text/css">
	.st0{fill:#353D42;}
	.st1{fill:#FFFFFF;}
</style>
<g>
	<g>
		<path class="st0" d="M32.3,7.3c-4.6-4.8-10.4-6.1-16.8-4.7C7,4.6,0,14.1,3.6,24.4c2.2,6.3,4.8,12.4,7.5,18.5
			c2.6,5.8,5.6,11.4,8.5,17c0.2,0,0.4,0,0.6,0c2.9-5.7,5.9-11.3,8.5-17c2.8-6.1,5.4-12.3,7.6-18.7C38.6,17.9,37,12.1,32.3,7.3z"/>
	</g>
	<g>
		<path class="st1" d="M18.5,28.5V15.9l-2.7,0.8L15,14.6l6.5-2.5v16.5H18.5z"/>
	</g>
	<polygon class="st1" points="28.9,16.5 26.9,16.5 26.9,14.5 25.6,14.5 25.6,16.5 23.6,16.5 23.6,17.8 25.6,17.8 25.6,19.8 
		26.9,19.8 26.9,17.8 28.9,17.8 	"/>
</g>
</svg>
