<?xml version="1.0" encoding="utf-8"?>
<!-- Generator: Adobe Illustrator 23.0.3, SVG Export Plug-In . SVG Version: 6.00 Build 0)  -->
<svg version="1.1" id="Layer_1" xmlns="http://www.w3.org/2000/svg" xmlns:xlink="http://www.w3.org/1999/xlink" x="0px" y="0px"
	 viewBox="0 0 40 70" style="enable-background:new 0 0 40 70;" width="40px" height="70px" xml:space="preserve">
<style type="text/css">
	.st0{fill:#1E9E2D;}
	.st1{fill:#FFFFFF;}
	.st2{opacity:0.3;fill:url(#SVGID_1_);enable-background:new    ;}
	.st3{opacity:0.3;fill:url(#SVGID_2_);enable-background:new    ;}
</style>
<g>
	<g>
		<g>
			<path class="st0" d="M37.2,19.5C35,11.2,26.7,5.3,18.3,6.3c-9.2,1.1-16,8.5-16,17.5c0,3.2,0.9,6.3,2,9.3
				c3.4,9.4,8.1,18,13.1,26.5c0.8,1.5,1.7,2.8,2.7,4.5c1.7-2.8,3.3-5.4,4.7-8.1c4.4-7.9,8.7-15.8,11.5-24.4
				C37.6,27.6,38.3,23.7,37.2,19.5z"/>
		</g>
		<path class="st1" d="M26.6,30.3l-3.3-4.4H25c0.2,0,0.3-0.1,0.4-0.2c0.1-0.1,0.1-0.3,0-0.4l-2.9-4.4h0.9c0.2,0,0.3-0.1,0.4-0.2
			c0.1-0.1,0.1-0.3,0-0.4l-3.4-5c-0.2-0.2-0.5-0.2-0.7,0l-3.4,5c-0.1,0.1-0.1,0.3,0,0.4c0.1,0.1,0.2,0.2,0.4,0.2h0.9l-2.9,4.4
			c-0.1,0.1-0.1,0.3,0,0.4c0.1,0.1,0.2,0.2,0.4,0.2h1.7l-3.3,4.4c-0.1,0.1-0.1,0.3,0,0.4c0.1,0.1,0.2,0.2,0.4,0.2h5.9v3.8
			c0,0.2,0.2,0.4,0.4,0.4c0.2,0,0.4-0.2,0.4-0.4V31h5.9c0.2,0,0.3-0.1,0.4-0.2C26.8,30.6,26.7,30.4,26.6,30.3z"/>
	</g>
	<g>
		
			<radialGradient id="SVGID_1_" cx="20" cy="42.356" r="18.0413" gradientTransform="matrix(1 0 0 -0.2627 0 75.2571)" gradientUnits="userSpaceOnUse">
			<stop  offset="0" style="stop-color:#000000"/>
			<stop  offset="1" style="stop-color:#000000;stop-opacity:0"/>
		</radialGradient>
		<ellipse class="st2" cx="20" cy="64.1" rx="24.8" ry="5.9"/>
		
			<radialGradient id="SVGID_2_" cx="28.4003" cy="71.0526" r="18.0399" gradientTransform="matrix(0.35 0 0 -9.169042e-02 9.8599 70.645)" gradientUnits="userSpaceOnUse">
			<stop  offset="0" style="stop-color:#000000"/>
			<stop  offset="1" style="stop-color:#000000;stop-opacity:0"/>
		</radialGradient>
		<ellipse class="st3" cx="19.8" cy="64.1" rx="8.7" ry="2"/>
	</g>
</g>
</svg>
