<?xml version="1.0" encoding="utf-8"?>
<!-- Generator: Adobe Illustrator 23.0.3, SVG Export Plug-In . SVG Version: 6.00 Build 0)  -->
<svg version="1.1" id="Layer_1" xmlns="http://www.w3.org/2000/svg" xmlns:xlink="http://www.w3.org/1999/xlink" x="0px" y="0px"
	 viewBox="0 0 40 70" style="enable-background:new 0 0 40 70;" width="40px" height="70px" xml:space="preserve">
<style type="text/css">
	.st0{fill:#FFFFFF;}
	.st1{opacity:0.3;fill:url(#SVGID_1_);}
	.st2{opacity:0.3;fill:url(#SVGID_2_);}
	.st3{fill:#37AA44;}
</style>
<g>
	<g>
		<g>
			<path class="st3" d="M37.2,19.5C35,11.2,26.7,5.3,18.3,6.3c-9.2,1.1-16,8.5-16,17.5c0,3.2,0.9,6.3,2,9.3c3.4,9.4,8.1,18,13.1,26.5
				c0.8,1.5,1.7,2.8,2.7,4.5c1.7-2.8,3.3-5.4,4.7-8.1c4.4-7.9,8.7-15.8,11.5-24.4C37.6,27.6,38.3,23.7,37.2,19.5z"/>
		</g>
		<g>
			<path class="st0" d="M28.7,29.5h-1.9v-6.4c0-0.2-0.2-0.4-0.4-0.4H13.7c-0.2,0-0.4,0.2-0.4,0.4v6.4h-1.9c-0.2,0-0.4,0.2-0.4,0.4
				c0,0.2,0.2,0.4,0.4,0.4h17.3c0.2,0,0.4-0.2,0.4-0.4C29.1,29.6,28.9,29.5,28.7,29.5z M15.6,23.8c0-0.2,0.2-0.4,0.4-0.4h2.3
				c0.2,0,0.4,0.2,0.4,0.4v3.8c0,0.2-0.2,0.4-0.4,0.4H16c-0.2,0-0.4-0.2-0.4-0.4C15.6,27.6,15.6,23.8,15.6,23.8z M19.3,29.1
				c0,0.2-0.2,0.4-0.4,0.4h-3.8c-0.2,0-0.4-0.2-0.4-0.4l0,0c0-0.2,0.2-0.4,0.4-0.4h3.8C19.2,28.7,19.3,28.9,19.3,29.1L19.3,29.1z
				 M24.6,26.8c0,0.2-0.2,0.4-0.4,0.4h-3.8c-0.2,0-0.4-0.2-0.4-0.4v-2.3c0-0.2,0.2-0.4,0.4-0.4h3.8c0.2,0,0.4,0.2,0.4,0.4V26.8z"/>
			<path class="st0" d="M11.5,21.9h17.3c0.2,0,0.3-0.1,0.4-0.3c0.1-0.2,0-0.3-0.1-0.4L27,19.6v-3.4c0-0.2-0.2-0.4-0.4-0.4h-2.3
				c-0.2,0-0.4,0.2-0.4,0.4v1.2l-3.5-2.6c-0.1-0.1-0.3-0.1-0.4,0l-8.6,6.4c-0.3,0.2-0.3,0.3-0.3,0.5C11.2,21.9,11.3,22,11.5,21.9z"
				/>
		</g>
	</g>
	<g>
		
			<radialGradient id="SVGID_1_" cx="20" cy="64.1301" r="18.0413" gradientTransform="matrix(1 0 0 0.2627 0 47.2832)" gradientUnits="userSpaceOnUse">
			<stop  offset="0" style="stop-color:#000000"/>
			<stop  offset="1" style="stop-color:#000000;stop-opacity:0"/>
		</radialGradient>
		<ellipse class="st1" cx="20" cy="64.1" rx="24.8" ry="5.9"/>
		
			<radialGradient id="SVGID_2_" cx="26.5397" cy="127.7288" r="18.0413" gradientTransform="matrix(0.35 0 0 9.169042e-02 10.5099 52.4186)" gradientUnits="userSpaceOnUse">
			<stop  offset="0" style="stop-color:#000000"/>
			<stop  offset="1" style="stop-color:#000000;stop-opacity:0"/>
		</radialGradient>
		<ellipse class="st1" cx="19.8" cy="64.1" rx="8.7" ry="2"/>
	</g>
</g>
</svg>
